<svg width="67" height="67" viewBox="0 0 67 67" fill="none" xmlns="http://www.w3.org/2000/svg">
<path d="M14.7795 12C13.6868 12.747 11.7107 13.7229 11.7125 14.1864L11.6701 15.5595C3.8843 20.9121 -2.12231 28.7772 2.76572 31.5027C3.42662 31.5627 4.28522 31.1802 5.59552 29.7906C0.287599 27.6684 6.0104 21.0239 11.6019 16.2411C11.3524 23.2637 11.2972 28.5671 11.2753 34.1971C10.6327 35.023 10.1667 36.3112 9.70637 37.0677C10.237 36.5829 10.8138 35.9699 11.2293 35.8058L10.8774 48.0872C10.7816 48.3573 10.9729 48.5991 10.0309 48.9523C10.4844 49.9987 10.3129 50.2812 10.3229 50.7857C10.289 51.1431 13.1802 49.4822 13.1811 48.7921L13.5883 33.438C18.801 29.6235 27.1631 28.2556 28.2624 34.1599C-1.78886 65.3169 26.4839 54.2005 30.4297 34.3289L35.9112 29.5563C29.8255 49.2186 31.9424 51.1214 32.4978 53.0207C32.7291 53.6086 35.461 51.5435 35.7322 51.0648C39.8719 44.1295 41.5204 40.1456 42.9018 38.1043C40.2653 44.4025 40.4977 46.6312 39.5754 50.4974C43.4467 50.0385 48.5611 39.6035 50.5085 36.1102C47.3212 44.8731 44.7908 52.8046 48.4513 52.9034C50.2763 52.8944 53.9474 48.8793 57.1045 43.6172C57.2989 47.0611 58.6245 52.0739 62.0045 50.1842L63.0948 48.7735C60.6857 49.1727 58.6069 48.1775 58.7825 41.5527C74.623 22.8986 58.4079 28.6741 56.9919 42.3713C55.0347 45.6829 51.6658 50.7455 50.9287 50.9191C46.6401 51.2207 51.3981 40.4856 52.7456 33.6746C47.1305 36.52 43.7144 45.6561 42.2729 47.2531C41.5505 45.2344 46.8725 33.7159 46.2675 33.8824C40.3032 36.4572 35.7698 50.2137 34.6697 50.2938C33.2078 50.367 33.7405 42.2766 38.1106 28.0756C54.7171 6.21287 38.9876 17.1481 36.1534 28.0941L30.5986 32.636C30.129 23.7493 17.8773 29.7489 14.4627 32.2908C36.3815 9.58149 20.3596 10.2709 14.4792 14.0593C32.1074 9.29663 18.0148 27.3789 13.3692 31.8138C13.5744 23.1135 13.605 19.8541 13.7738 13.5142C14.2189 13.1063 14.4658 12.9647 14.6952 12.8465C14.5487 12.4541 14.7032 12.252 14.7794 12L14.7795 12ZM42.8052 19.0652C42.8219 19.0642 42.8358 19.0682 42.8471 19.076C43.2418 19.244 39.6557 24.0888 38.0902 26.2931C39.2184 23.4643 42.2868 19.0949 42.8052 19.0652L42.8052 19.0652ZM63.7321 31.8107C64.3103 31.7404 63.3774 33.5154 58.7169 39.8371C59.7471 35.3876 62.9886 31.9011 63.7321 31.8107ZM28.0092 36.2233C26.9863 40.6201 20.4214 49.0423 19.1963 49.8256C18.0959 50.3942 15.7583 49.0258 28.0092 36.2233V36.2233Z" fill="#566573"/>
<circle cx="33.5" cy="33.5" r="32.5" stroke="#566573" stroke-width="2"/>
</svg>
