<svg width="64" height="52" viewBox="0 0 64 52" fill="none" xmlns="http://www.w3.org/2000/svg">
<mask id="mask0_248_6" style="mask-type:alpha" maskUnits="userSpaceOnUse" x="0" y="0" width="64" height="52">
<rect width="64" height="52" fill="#C4C4C4"/>
</mask>
<g mask="url(#mask0_248_6)">
<path d="M16.2 51C13.2667 51 10.8667 50.4 9 49.2C7.13333 48 5.6 46.4667 4.4 44.6C3.06667 42.3333 2.13333 40 1.6 37.6C1.2 35.0667 1 33 1 31.4C1 24.8667 2.66667 18.9333 6 13.6C9.33333 8.26666 14.5333 3.93333 21.6 0.599988L23.4 4.19999C19.2667 5.93332 15.6667 8.66666 12.6 12.4C9.66667 16.1333 8.2 19.9333 8.2 23.8C8.2 25.4 8.4 26.8 8.8 28C10.9333 26.2667 13.4 25.4 16.2 25.4C19.6667 25.4 22.6667 26.5333 25.2 28.8C27.7333 31.0667 29 34.2 29 38.2C29 41.9333 27.7333 45 25.2 47.4C22.6667 49.8 19.6667 51 16.2 51ZM50.2 51C47.2667 51 44.8667 50.4 43 49.2C41.1333 48 39.6 46.4667 38.4 44.6C37.0667 42.3333 36.1333 40 35.6 37.6C35.2 35.0667 35 33 35 31.4C35 24.8667 36.6667 18.9333 40 13.6C43.3333 8.26666 48.5333 3.93333 55.6 0.599988L57.4 4.19999C53.2667 5.93332 49.6667 8.66666 46.6 12.4C43.6667 16.1333 42.2 19.9333 42.2 23.8C42.2 25.4 42.4 26.8 42.8 28C44.9333 26.2667 47.4 25.4 50.2 25.4C53.6667 25.4 56.6667 26.5333 59.2 28.8C61.7333 31.0667 63 34.2 63 38.2C63 41.9333 61.7333 45 59.2 47.4C56.6667 49.8 53.6667 51 50.2 51Z" fill="white"/>
</g>
</svg>
